<?xml version="1.0"?>
<svg xmlns="http://www.w3.org/2000/svg" xmlns:xlink="http://www.w3.org/1999/xlink" class="" id="Capa_1" style="enable-background:new 0 0 60 60;" viewBox="0 0 60 60" x="0px" y="0px" width="512px" height="512px" version="1.1" xml:space="preserve"><g><path class="active-path" d="M 57.49 21.5 H 54 v -6.268 c 0 -1.507 -1.226 -2.732 -2.732 -2.732 H 26.515 l -5 -7 H 2.732 C 1.226 5.5 0 6.726 0 8.232 v 43.687 l 0.006 0 c -0.005 0.563 0.17 1.114 0.522 1.575 C 1.018 54.134 1.76 54.5 2.565 54.5 h 44.759 c 1.156 0 2.174 -0.779 2.45 -1.813 L 60 24.649 v -0.177 C 60 22.75 58.944 21.5 57.49 21.5 Z M 2 8.232 C 2 7.828 2.329 7.5 2.732 7.5 h 17.753 l 5 7 h 25.782 c 0.404 0 0.732 0.328 0.732 0.732 V 21.5 H 12.731 c -0.144 0 -0.287 0.012 -0.426 0.036 c -0.973 0.163 -1.782 0.873 -2.023 1.776 L 2 45.899 V 8.232 Z M 47.869 52.083 c -0.066 0.245 -0.291 0.417 -0.545 0.417 H 2.565 c -0.243 0 -0.385 -0.139 -0.448 -0.222 c -0.063 -0.082 -0.16 -0.256 -0.123 -0.408 l 10.191 -27.953 c 0.066 -0.245 0.291 -0.417 0.545 -0.417 H 54 h 3.49 c 0.38 0 0.477 0.546 0.502 0.819 L 47.869 52.083 Z" data-original="#000000" data-old_color="#007ee5" fill="#007ee5"/></g> </svg>
